<svg xmlns="http://www.w3.org/2000/svg" width="787.885" height="787.905" class="icon" viewBox="0 0 1008.493 1008.518"><path d="M313.656 11.537c-19.572.22-39.112 2.042-58.441 5.096-9.381 1.519-18.75 3.123-28.129 4.66v86.17c-38.713 24.521-73.401 55.309-102.639 90.58-27.946 33.671-51.035 71.282-69.153 111.088-13.941 30.661-25.087 62.609-33.026 95.346-4.22 17.56-7.662 35.339-9.559 53.31-.732 7.551-1.399 15.14-1.125 22.734.27 8.17 3.372 16.027 7.835 22.794 5.348 8.04 12.34 14.857 19.834 20.889 11.993 9.566 25.238 17.441 38.829 24.503 24.52 12.699 50.274 22.799 76.215 32.174 5.326 1.953 10.683 3.915 16.022 5.87 16.655-25.942 33.308-51.886 49.962-77.83 32.79-6.625 63.985-20.852 90.602-41.1 38.383-29.11 67.59-70.096 82.693-115.832 6.827-20.786 10.664-42.627 10.565-64.532.381-2.586-1.139-5.382-3.666-6.217-1.368-.474-2.832-.13-4.245-.238h-61.298c-.053 7.445.033 14.918-.937 22.316-.24 2.105-.57 4.4-.887 6.367a149.139 149.139 0 0 1-5.3 21.59 159.793 159.793 0 0 1-6.027 15.658c-.321.71-.761 1.693-1.144 2.503a169.516 169.516 0 0 1-23.518 36.968c-.446.52-1.073 1.274-1.533 1.807-11.102 12.921-24.184 24.156-38.723 33.047-.448.273-1.2.721-1.765 1.061-18.29 10.896-38.846 17.928-59.96 20.621-5.373.71-10.752 1.37-16.126 2.07l-36.549 56.945a546.348 546.348 0 0 1-16.927-7.548c-12.137-5.68-24.12-11.745-35.525-18.796-2.92-1.822-5.77-3.758-8.474-5.888.47-4.086 1-7.977 1.625-12.066 1.872-12.198 4.328-24.295 7.204-36.324a483.489 483.489 0 0 1 10.16-35.964 473.564 473.564 0 0 1 18.486-48.03c.597-1.299 1.283-2.816 1.916-4.199 15.541-33.64 35.252-65.426 59.19-93.747a374.446 374.446 0 0 1 25.072-26.9c.721-.687 1.635-1.57 2.43-2.332a364.862 364.862 0 0 1 19.466-17.3v49.608h69.26V81.527c5.25-.38 10.605-.62 15.92-.72.512-.002 1.38-.003 2.03-.014 4.259-.305 8.191 1.919 11.418 4.482 3.67 2.933 6.76 6.732 8.446 11.146.786 2.023.785 4.212.734 6.347-.04 28.6-.006 57.202-.017 85.802 13.581.044 27.164-.083 40.744.102 4.048.07 8.263.19 12.373.342a594.185 594.185 0 0 1 49.936 4.053c1.58.203 3.158.409 4.736.613-.008 33.09.035 66.182-.042 99.272a307.183 307.183 0 0 1-.843 18.321c-.38 4.97-.882 9.94-1.495 14.834a302.823 302.823 0 0 1-2.488 16.192c-1.848 10.131-4.205 20.172-7.118 30.05-2.871 9.712-6.34 19.455-10.346 28.839a246.819 246.819 0 0 1-5.05 11.09 239.706 239.706 0 0 1-6.64 12.712 234.47 234.47 0 0 1-20.025 30.045 226.972 226.972 0 0 1-15.873 18.119c-.844.882-1.657 1.687-2.558 2.594a233.135 233.135 0 0 1-17.627 15.855c-.969.768-2.118 1.709-3.174 2.522-15.514 12.18-32.541 22.366-50.385 30.74-.96.442-2.31 1.065-3.252 1.506-2.497 1.12-4.999 2.25-7.533 3.27-2.486 1.244-3.67 4.56-2.386 7.062 8.386 19.52 16.826 39.017 25.234 58.527 17.424-7.313 34.478-15.586 50.63-25.418.742-.443 1.48-.894 2.213-1.353 8.722 12.194 15.82 25.643 20.188 40.015.272.894.612 2.06.887 3.064 2.624 9.571 3.963 19.504 3.78 29.433.013 73.298.01 146.596.008 219.894-27.407-12.09-55.325-23.353-84.418-30.718-27.232-6.956-55.363-10.481-83.475-10.165-14.346.204-28.633 2.269-42.546 5.725-23.404 5.85-45.752 15.695-66.145 28.549-12.591 7.983-24.469 17.18-34.9 27.853-2.725 2.817-5.36 5.718-8.016 8.6l51.065 46.807c4.347-4.711 8.623-9.525 13.577-13.618 6.082-5.165 12.668-9.718 19.542-13.761.489-.277 1.271-.732 1.873-1.077a183.76 183.76 0 0 1 4.46-2.454c15.265-8.057 31.8-13.912 48.923-16.342a121.92 121.92 0 0 1 8.254-.842c.368-.016 1.172-.068 1.57-.087 1.503-.07 3.15-.118 4.525-.122 4.619-.047 9.235.139 13.813.342.887.056 2.06.11 3.058.18a249.827 249.827 0 0 1 29.184 3.591c2.506.459 4.98.943 7.517 1.487 7.949 1.693 15.925 3.773 23.763 6.14 2.094.64 4.23 1.3 6.231 1.949 27.644 8.968 54.04 21.247 80.507 33.09 23.076 10.379 46.264 20.579 70.075 29.174 29.096 10.564 59.05 18.86 89.568 24.115 28.139 4.888 56.681 7.34 85.234 7.675 19.12.268 38.271-.722 57.214-3.376 35.984-4.972 71.217-15.634 103.725-31.882 33.17-16.524 63.464-38.696 89.55-64.995 30.001-30.191 54.54-65.662 73.013-103.969 20.424-42.301 33.55-88.091 38.857-134.755 3.613-31.944 3.42-64.297-.292-96.222-3.922-33.58-11.97-66.693-24.179-98.227-13.712-35.527-32.586-69.006-55.467-99.427-29.19-38.896-64.65-72.866-103.623-101.857-40.929-30.485-85.699-55.623-132.402-76.103-54.919-24.026-112.574-41.721-171.418-53.099-33.948-6.547-68.326-10.93-102.855-12.79-.03-8.001.092-16.005-.107-24.004-.866-16.9-7.482-33.216-17.552-46.71-11.886-15.953-28.633-28.436-47.677-34.407-8.118-2.523-16.637-3.776-25.14-3.596Zm201.78 195.121c22.468 5.135 44.734 11.167 66.675 18.226a786.003 786.003 0 0 1 58.547 21.369c3.717 1.523 7.358 3.074 11.06 4.634.637.269 1.428.615 2.124.914L528.222 377.42l48.968 48.967 141.947-141.922c24.236 13.842 47.345 29.644 69.107 47.117.419.304 1.104.712.271 1.124L636.012 485.209l48.967 48.967 154.283-154.284a360.526 360.526 0 0 1 48.48 68.9c.067.525-.799.91-1.11 1.377l-142.831 142.83 48.967 48.968c40.984-40.978 81.97-81.955 122.955-122.932a330.7 330.7 0 0 1 4.892 20.684 353.33 353.33 0 0 1 2.186 11.818c1.999 11.986 3.371 24.075 4.15 36.201a388.61 388.61 0 0 1 .703 17.092c.018 1.66.046 3.54.054 5.284a334.452 334.452 0 0 1-.55 21.205 345.058 345.058 0 0 1-2.611 26.945H718.471c-10.686-16.773-25.188-31.305-42.629-41-16.516-9.255-35.651-13.598-54.54-12.81-18.06.706-35.839 6.31-51.215 15.77-18.521 11.298-33.658 27.613-44.973 46.023-14.519 23.53-23.096 50.426-26.651 77.763-3.926 30.302-1.766 61.4 6.527 90.82 8.106 29.09 21.932 56.421 39.418 80.978.71.994 1.417 1.988 2.137 2.973a441.749 441.749 0 0 1-42.56-10.916c-13.717-4.247-27.408-9.176-40.809-14.521-1.718-.686-3.437-1.37-5.147-2.075 0-84.853.01-169.707-.023-254.56-.321-27.082-7.396-53.895-19.422-78.1-5.685-11.499-12.426-22.469-20.031-32.797 25.845-25.372 46.82-55.622 61.861-88.552 17.527-38.224 27.378-79.756 30.51-121.628.875-11.834 1.1-23.705 1-35.569v-74.169l3.512.764zm110.26 466.973c8.33-.03 16.5 3.265 22.814 8.637 6.768 5.638 11.908 13.034 15.661 20.956 1.823 4.197 3.184 8.574 4.83 12.842l4.196 11.455h234.56a346.314 346.314 0 0 1-10.694 26.69 348.643 348.643 0 0 1-5.197 10.986c-.189.697-.6 1.034-1.328.856H658.244v69.26h186.692a293.02 293.02 0 0 1-13.15 13.88c-12.468 12.313-26.06 23.493-40.612 33.26-1.015.664-2.227 1.487-3.332 2.194-24.775 16.1-52.265 28.015-80.971 35.026a278.53 278.53 0 0 1-21.165 4.325c-1.327.204-2.89.464-4.312.665a283.42 283.42 0 0 1-31.255 2.843c-13.862-11.018-26.547-23.506-37.91-37.081-16.637-19.993-30.36-42.694-38.451-67.5a166.01 166.01 0 0 1-4.788-18.034c-.18-.936-.43-2.144-.613-3.189a157.43 157.43 0 0 1-1.822-12.987 152.877 152.877 0 0 1-.73-14.26c-.009-2.818.048-5.658.185-8.41.431-8.63 1.55-17.232 3.428-25.668.13-.575.334-1.472.5-2.171 3.098-12.82 7.88-25.32 14.906-36.518 2.921-4.616 6.236-8.993 10-12.956.6-.618 1.39-1.436 2.1-2.099 6.214-5.944 13.819-10.782 22.361-12.417a34.267 34.267 0 0 1 6.39-.585z" style="display:inline;fill:#fff;fill-opacity:1;stroke:#fff;stroke-width:23.04;stroke-dasharray:none;stroke-opacity:1;paint-order:stroke fill markers"/><path fill="#f7c768" d="M431.158 162.25v-27.513c0-41.553-39.29-80.842-80.842-80.842-28.834 0-57.129 4.662-58.314 4.85l-22.528 3.746v83.887C144.788 223.825 89.223 346.84 66.99 431.158h266.052c240.747 0 415.851 107.79 415.851 269.474-14.848-25.115-43.924-53.895-88.683-53.895-67.989 0-121.264 71.033-121.264 161.684 0 66.803 30.478 119.889 60.713 156.16 12.638 15.171 36.055 37.726 59.015 58.88 5.066.108 9.781.539 15.01.539C892.981 1024 1024 832.189 1024 646.737c0-319.192-344.145-473.924-592.842-484.487Z" style="display:inline" transform="translate(-34.705 -34.686)"/><path fill="#231f20" d="M673.684 1024c-114.769 0-188.82-33.334-254.167-62.787-53.626-24.145-99.975-45.002-161.28-45.002-40.448 0-83.591 23.255-103.64 45.163l-39.747-36.433c27.648-30.154 84.318-62.625 143.387-62.625 68.392 0 119.862 21.288 172.92 45.056V673.684c0-35.166-17.542-64.108-30.638-80.815-15.199 9.836-32.068 18.89-50.742 26.947l-21.342-49.475C469.8 509.413 485.053 377.317 485.053 323.368V221.642a597.827 597.827 0 0 0-80.842-6.063h-26.948v-80.842c0-12.1-14.848-26.948-26.947-26.948-9.378 0-18.836.593-26.948 1.348v160.337h-53.894v-57.802c-136.03 102.912-158.45 266.886-161.307 295.882 9.135 9.108 38.993 25.06 71.976 38.67l38.104-59.366 12.45-1.59c90.516-11.614 146.566-93.076 146.566-161.9h53.895c0 88.334-68.797 192.243-180.87 213.343l-48.398 75.398-20.292-7.437C53.895 557.757 53.895 523.318 53.895 512c0-50.041 37.025-254.733 215.579-365.622V62.491l22.528-3.746c1.185-.188 29.48-4.85 58.314-4.85 41.553 0 80.842 39.289 80.842 80.842v27.513C679.855 172.813 1024 327.545 1024 646.737 1024 832.189 892.982 1024 673.684 1024Zm-13.473-323.368c-36.514 0-67.369 49.367-67.369 107.79 0 85.746 68.096 145.084 89.465 161.549 91.54-2.534 164.38-45.488 213.828-107.655H700.632V808.42H930.87c8.92-17.273 16.357-35.355 22.285-53.895H713.27l-6.467-17.65c-.512-1.294-14.363-36.244-46.592-36.244zm-175.158 230.48c33.926 14.067 70.52 26.597 114.607 33.469-30.235-36.271-60.713-89.357-60.713-156.16 0-90.65 53.275-161.684 121.264-161.684 44.76 0 73.835 28.78 88.683 53.895h217.007c2.776-17.867 4.204-35.921 4.204-53.895 0-38.94-5.659-74.752-15.926-107.628l-126.706 126.68-38.104-38.104 142.633-142.632a367.94 367.94 0 0 0-57.775-81.597L719.683 557.999l-38.103-38.103 153.573-153.573a537.87 537.87 0 0 0-82.594-56.752L611.894 450.21l-38.104-38.104 128.135-128.135a794.732 794.732 0 0 0-162.978-52.924v92.321c0 50.15-11.102 156.7-95.932 236.329 18.378 23.417 42.038 63.407 42.038 113.987zM215.579 431.158v-53.895c39.774 0 53.895-29.022 53.895-53.895h53.894c0 53.572-37.025 107.79-107.79 107.79z" style="display:inline;stroke:none;stroke-width:32;stroke-dasharray:none;stroke-opacity:1;paint-order:stroke fill markers" transform="translate(-34.705 -34.686)"/></svg>
