<svg xmlns="http://www.w3.org/2000/svg" width="800" height="800" fill="none" viewBox="0 -0.5 25 25"><path stroke="#000" stroke-linecap="round" stroke-linejoin="round" stroke-width="1.5" d="M5.5 11v2a6 6 0 0 0 6 6h2a6 6 0 0 0 6-6v-2a6 6 0 0 0-6-6h-2a6 6 0 0 0-6 6Z" clip-rule="evenodd"/><path stroke="#000" stroke-linecap="round" stroke-width="1.5" d="M12.5 12v4"/><path fill="#000" d="M12.5 9.5a.5.5 0 1 1 .001-1.001A.5.5 0 0 1 12.5 9.5Z"/><path fill="#000" d="M12.5 8a1 1 0 1 1 0 2 1 1 0 0 1 0-2Z"/></svg>
