<svg xmlns="http://www.w3.org/2000/svg" width="800" height="800" fill="none" viewBox="0 0 24 24"><path stroke="#000" stroke-linecap="round" stroke-linejoin="round" stroke-width="2" d="M7.05 7.05h.01M10.512 3H7.8c-1.68 0-2.52 0-3.162.327a3 3 0 0 0-1.311 1.311C3 5.28 3 6.12 3 7.8v2.712c0 .733 0 1.1.083 1.446.073.306.195.598.36.867.185.303.444.562.963 1.08l4.7 4.7c1.188 1.189 1.782 1.783 2.467 2.005a3 3 0 0 0 1.854 0c.685-.222 1.28-.816 2.467-2.004l2.712-2.712c1.188-1.188 1.782-1.782 2.004-2.467a3 3 0 0 0 0-1.854c-.222-.685-.816-1.28-2.004-2.467l-4.7-4.7c-.519-.519-.778-.778-1.081-.964a3.001 3.001 0 0 0-.867-.36C11.612 3 11.245 3 10.512 3ZM7.55 7.05a.5.5 0 1 1-1 0 .5.5 0 0 1 1 0Z"/></svg>
