<?xml version="1.0" encoding="UTF-8" standalone="no"?>
<svg
   width="787.88525"
   height="787.90466"
   viewBox="0 0 1008.4931 1008.518"
   class="icon"
   version="1.1"
   id="svg2"
   xmlns="http://www.w3.org/2000/svg"
   xmlns:svg="http://www.w3.org/2000/svg">
  <defs
     id="defs2" />
  <path
     id="path2-3"
     style="display:inline;fill:#ffffff;fill-opacity:1;stroke:#ffffff;stroke-width:23.04;stroke-dasharray:none;stroke-opacity:1;paint-order:stroke fill markers"
     d="m 313.65645,11.53698 c -19.57291,0.219439 -39.11274,2.041945 -58.44141,5.095704 -9.38109,1.519227 -18.74984,3.123502 -28.12891,4.660156 0,28.723308 0,57.446615 0,86.16992 -38.71298,24.52172 -73.4015,55.30878 -102.63883,90.5795 -27.946073,33.67186 -51.034865,71.2832 -69.153622,111.0889 -13.941038,30.66082 -25.087052,62.60847 -33.025473,95.3462 -4.220658,17.56054 -7.66231,35.33853 -9.559031,53.30962 -0.732416,7.55147 -1.398827,15.14077 -1.125,22.73438 0.268881,8.17011 3.371585,16.02616 7.834824,22.79398 5.347585,8.04054 12.339571,14.85626 19.833552,20.88863 11.99332,9.56601 25.238367,17.44118 38.828974,24.50306 24.520066,12.69889 50.274076,22.79865 76.215026,32.17383 5.32618,1.95302 10.6833,3.91553 16.02201,5.87097 16.65575,-25.94242 33.30835,-51.88687 49.96289,-77.83008 32.78939,-6.62574 63.98494,-20.85309 90.60159,-41.10086 38.38301,-29.1102 67.58951,-70.09604 82.69246,-115.83159 6.82739,-20.78666 10.66466,-42.6268 10.56532,-64.53239 0.38136,-2.58621 -1.13839,-5.38237 -3.66601,-6.2168 -1.36827,-0.47375 -2.83133,-0.1306 -4.24493,-0.23828 -20.43268,0 -40.86536,0 -61.29804,0 -0.0526,7.44518 0.0333,14.91823 -0.93716,22.31654 -0.23943,2.10455 -0.56975,4.40055 -0.88706,6.36705 -1.01486,6.06724 -2.39323,11.97324 -4.15941,17.92649 -0.32502,1.09208 -0.75154,2.46921 -1.14115,3.66295 -1.72724,5.32214 -3.74983,10.5472 -6.02561,15.65861 -0.32193,0.70901 -0.76184,1.69272 -1.14468,2.503 -6.19109,13.27359 -14.12764,25.72828 -23.51743,36.9677 -0.44681,0.51889 -1.07312,1.27339 -1.53322,1.80639 -11.10242,12.92176 -24.18377,24.15639 -38.72264,33.04713 -0.44862,0.27313 -1.20033,0.7214 -1.76512,1.06167 -18.29029,10.89549 -38.84685,17.92781 -59.9607,20.62083 -5.37263,0.70967 -10.75174,1.36961 -16.12574,2.06945 -12.18324,18.98159 -24.36584,37.96357 -36.54883,56.94531 -5.61284,-2.39465 -11.41759,-4.97014 -16.92734,-7.54831 -12.13657,-5.67947 -24.12015,-11.74489 -35.525185,-18.79569 -2.918887,-1.8219 -5.769468,-3.75836 -8.473266,-5.88842 0.4703,-4.08533 0.999843,-7.97662 1.624242,-12.06596 1.872935,-12.19722 4.328082,-24.29431 7.204831,-36.32311 2.902934,-12.02005 6.30817,-24.12997 10.159508,-35.96406 5.27868,-16.33181 11.46607,-32.36769 18.48603,-48.02968 0.59687,-1.29928 1.28265,-2.81704 1.91602,-4.19922 15.54113,-33.64007 35.2524,-65.42659 59.19018,-93.74782 7.9053,-9.3746 16.28493,-18.34704 25.07154,-26.90062 0.72146,-0.68607 1.63566,-1.56937 2.43117,-2.33123 6.28007,-5.99536 12.77352,-11.76752 19.46531,-17.29963 0,16.53581 0,33.07162 0,49.60743 23.08659,0 46.17318,0 69.25977,0 0,-53.64714 0,-107.29428 0,-160.941415 5.25032,-0.379375 10.6048,-0.619508 15.91992,-0.720703 0.51237,-0.0015 1.37993,-0.003 2.0293,-0.01367 4.25983,-0.305113 8.1919,1.91868 11.41878,4.482376 3.67066,2.933272 6.75973,6.731634 8.44587,11.145935 0.78616,2.022512 0.78486,4.211937 0.73404,6.347077 -0.0394,28.60063 -0.006,57.20131 -0.0167,85.80196 13.58135,0.0436 27.1635,-0.0831 40.74414,0.10156 4.04741,0.0698 8.26271,0.18983 12.37305,0.3418 16.62665,0.64998 33.34717,1.9929 49.93609,4.05319 1.57878,0.20281 3.15716,0.40879 4.73578,0.61282 -0.008,33.0908 0.0351,66.18197 -0.0418,99.27253 -0.0935,6.03127 -0.38515,12.31582 -0.84294,18.32122 -0.38004,4.97019 -0.88224,9.94041 -1.49573,14.83377 -0.68585,5.42487 -1.51899,10.87421 -2.48737,16.19229 -1.8482,10.13113 -4.2058,20.17157 -7.11847,30.05011 -2.87131,9.71108 -6.33967,19.45418 -10.34591,28.83852 -1.62269,3.80645 -3.23619,7.3486 -5.05,11.09073 -2.08475,4.30682 -4.33433,8.59936 -6.64012,12.71148 -5.87826,10.49646 -12.65025,20.65054 -20.02451,30.04482 -4.91515,6.25199 -10.2675,12.37226 -15.87366,18.11888 -0.84379,0.88249 -1.65648,1.68697 -2.55803,2.59433 -5.60119,5.57999 -11.48786,10.87302 -17.62691,15.85515 -0.96835,0.76761 -2.11813,1.70862 -3.17408,2.52206 -15.51329,12.17996 -32.54084,22.36586 -50.38451,30.73966 -0.95949,0.44144 -2.30934,1.06444 -3.25195,1.50586 -2.49722,1.12051 -4.99899,2.2504 -7.53327,3.26933 -2.48608,1.24509 -3.67077,4.56111 -2.38555,7.06277 8.38572,19.51929 16.82537,39.01693 25.23327,58.52727 17.42391,-7.31344 34.47843,-15.58613 50.62995,-25.41823 0.74257,-0.4435 1.48065,-0.89433 2.2138,-1.35325 8.72136,12.19439 15.81986,25.64335 20.1875,40.01562 0.27239,0.89393 0.61197,2.05942 0.88673,3.06363 2.62451,9.57111 3.96294,19.50382 3.77965,29.43247 0.0136,73.29818 0.0106,146.59635 0.009,219.89453 -27.40713,-12.08983 -55.32501,-23.35357 -84.41801,-30.71822 -27.23246,-6.95589 -55.36289,-10.48135 -83.47557,-10.16527 -14.34527,0.20443 -28.63229,2.26917 -42.54566,5.72538 -23.40375,5.85087 -45.75239,15.69515 -66.14529,28.54863 -12.591095,7.98303 -24.468502,17.17978 -34.899851,27.85362 -2.724933,2.81656 -5.360142,5.71785 -8.015625,8.59961 17.021945,15.60171 34.043456,31.2039 51.064456,46.80664 4.34747,-4.71053 8.62302,-9.52403 13.57713,-13.61795 6.08233,-5.16426 12.66767,-9.7176 19.54201,-13.76096 0.48894,-0.2763 1.2714,-0.73199 1.87288,-1.07708 1.35742,-0.77534 2.9796,-1.66429 4.4599,-2.4536 15.26498,-8.05688 31.79972,-13.91161 48.92308,-16.34236 2.79206,-0.38322 5.44205,-0.64579 8.25391,-0.8418 0.36826,-0.0159 1.17246,-0.068 1.57091,-0.0867 1.50209,-0.0708 3.14914,-0.118 4.52479,-0.12202 4.61855,-0.047 9.23494,0.13867 13.8125,0.34156 0.88763,0.0563 2.05942,0.11023 3.05788,0.18049 9.776,0.61534 19.60766,1.83686 29.18431,3.591 2.50606,0.45881 4.98017,0.94308 7.51684,1.48699 7.9488,1.69262 15.92565,3.77341 23.76297,6.14055 2.09416,0.63938 4.23023,1.29963 6.23132,1.94833 27.64427,8.96809 54.03987,21.24712 80.50703,33.09055 23.07599,10.37822 46.26389,20.57819 70.07488,29.1739 29.09625,10.56312 59.04902,18.86017 89.56753,24.11457 28.13944,4.88775 56.68152,7.3395 85.2346,7.67466 19.11931,0.26795 38.27132,-0.72191 57.21413,-3.37524 35.98339,-4.97206 71.2163,-15.63431 103.72429,-31.88236 33.17083,-16.52384 63.46483,-38.69617 89.55121,-64.99549 30.00018,-30.19071 54.53836,-65.66125 73.01214,-103.96847 20.42372,-42.30131 33.55026,-88.09126 38.85735,-134.75523 3.61283,-31.94339 3.41933,-64.29677 -0.29217,-96.22209 -3.92179,-33.57882 -11.9701,-66.6925 -24.1789,-98.22704 C 956.18616,428.00335 937.31214,394.52426 914.43142,364.10273 885.24106,325.2067 849.78006,291.23703 810.80786,262.24593 769.87926,231.7613 725.10914,206.62345 678.40602,186.14281 623.48736,162.11668 565.83185,144.42193 506.98845,133.04412 473.03989,126.49726 438.66203,122.1131 404.13301,120.25378 c -0.0305,-8.00085 0.0919,-16.00474 -0.10678,-24.003415 C 403.16025,79.350435 396.54415,63.033747 386.47438,49.539791 374.58794,33.587197 357.84134,21.104 338.79707,15.132684 330.67868,12.610309 322.15951,11.357411 313.65645,11.53698 Z m 201.77929,195.1211 c 22.46814,5.13477 44.73422,11.16723 66.67559,18.22631 19.75833,6.33496 39.31306,13.47081 58.54656,21.36848 3.71738,1.52318 7.35857,3.07366 11.06106,4.63372 0.63557,0.26921 1.4274,0.6153 2.12304,0.91407 -41.87304,41.87304 -83.74609,83.74609 -125.61914,125.61914 16.32227,16.32226 32.64453,32.64453 48.9668,48.96679 47.31543,-47.30762 94.63156,-94.61452 141.94727,-141.92187 24.23616,13.842 47.34538,29.64433 69.10742,47.11719 0.41825,0.30456 1.1037,0.7124 0.27065,1.12388 -50.83436,50.83436 -101.66872,101.66871 -152.50307,152.50307 16.32226,16.32227 32.64453,32.64453 48.96679,48.9668 51.42774,-51.42774 102.85547,-102.85547 154.28321,-154.28321 18.77319,20.95196 35.13771,44.22333 48.48046,68.90039 0.0668,0.52456 -0.79907,0.90839 -1.11028,1.37591 -47.61037,47.61038 -95.22075,95.22075 -142.83112,142.83113 16.32226,16.32226 32.64453,32.64453 48.96679,48.96679 40.98468,-40.97756 81.97012,-81.95437 122.95508,-122.93164 1.85391,6.82544 3.49748,13.81918 4.89258,20.6836 0.80079,3.95756 1.52571,7.87499 2.18532,11.81859 1.99929,11.98587 3.37168,24.07482 4.15062,36.20094 0.15051,2.41156 0.2956,5.00783 0.40171,7.49347 0.13992,3.13586 0.24015,6.39932 0.30141,9.59832 0.018,1.65952 0.0457,3.5397 0.0535,5.28393 0.0184,3.05576 -0.007,6.09526 -0.0721,9.093 -0.0862,4.05128 -0.24862,8.13258 -0.47857,12.11243 -0.42066,7.39104 -1.08815,14.76753 -1.98334,22.11611 -0.19002,1.52381 -0.4041,3.2353 -0.62696,4.82813 -68.69206,0 -137.38411,0 -206.07617,0 -10.68578,-16.77266 -25.18819,-31.30451 -42.62868,-41.00011 -16.51632,-9.25431 -35.65149,-13.59764 -54.54086,-12.81018 -18.0588,0.7065 -35.83784,6.31001 -51.2139,15.76998 -18.52186,11.29829 -33.6583,27.61337 -44.97294,46.02362 -14.51917,23.53025 -23.09609,50.42575 -26.65143,77.76278 -3.92617,30.30274 -1.76593,61.40113 6.52736,90.82049 8.10594,29.0907 21.93145,56.42124 39.41774,80.9782 0.70924,0.99329 1.41667,1.98747 2.13693,2.9728 -14.35797,-2.92223 -28.56439,-6.58175 -42.56055,-10.91602 -13.71663,-4.24692 -27.40753,-9.17647 -40.80843,-14.52138 -1.718,-0.68547 -3.43666,-1.36905 -5.14665,-2.07432 -2e-4,-84.85348 0.0101,-169.70712 -0.0236,-254.56049 -0.32098,-27.08201 -7.39629,-53.89503 -19.42195,-78.09946 -5.68466,-11.49914 -12.42589,-22.46935 -20.03098,-32.79708 25.84503,-25.37253 46.81991,-55.62197 61.86115,-88.55227 17.5273,-38.22456 27.37755,-79.75604 30.51024,-121.62771 0.87506,-11.83403 1.10031,-23.70588 0.99971,-35.56924 -1e-5,-24.72292 0,-49.44584 0,-74.16875 1.17057,0.25455 2.34114,0.50911 3.51171,0.76367 z m 110.25977,466.97266 c 8.33128,-0.0299 16.50119,3.26558 22.81439,8.63743 6.76841,5.63806 11.90803,13.03372 15.66142,20.95534 1.82279,4.19786 3.18361,8.57477 4.82912,12.84223 1.39898,3.81855 2.7983,7.63697 4.19702,11.45562 78.1862,0 156.3724,0 234.5586,0 -3.19221,9.03971 -6.76221,17.94577 -10.69336,26.68945 -1.63488,3.60761 -3.40175,7.37084 -5.1967,10.98656 -0.18874,0.6964 -0.59959,1.03316 -1.3283,0.85524 -77.43112,0 -154.86224,0 -232.29336,0 0,23.08659 0,46.17318 0,69.25977 62.23047,0 124.46093,0 186.6914,0 -4.21685,4.75783 -8.69163,9.47258 -13.15039,13.88086 -12.46724,12.31306 -26.0602,23.49315 -40.61132,33.25976 -1.01533,0.66425 -2.22698,1.48744 -3.3321,2.19353 -24.77525,16.10049 -52.26527,28.01549 -80.97132,35.02671 -1.79083,0.44135 -3.50677,0.84658 -5.25365,1.2345 -5.27148,1.18846 -10.58008,2.21041 -15.91169,3.09018 -1.32665,0.20458 -2.88909,0.46427 -4.31084,0.66493 -10.35474,1.5289 -20.79557,2.46855 -31.25556,2.84289 -13.86214,-11.01746 -26.5466,-23.50545 -37.90983,-37.08089 -16.63704,-19.99238 -30.36044,-42.69344 -38.45126,-67.49982 -1.9284,-5.91652 -3.5352,-11.93864 -4.78735,-18.03453 -0.18131,-0.93589 -0.43037,-2.14324 -0.61299,-3.18812 -0.79314,-4.30056 -1.3902,-8.63626 -1.82256,-12.98766 -0.0475,-0.49663 -0.13654,-1.48641 -0.18164,-2.00195 -0.34385,-4.09107 -0.53562,-8.20975 -0.54882,-12.25743 -0.008,-2.81861 0.0489,-5.65883 0.18554,-8.41054 0.43127,-8.63067 1.54987,-17.2314 3.42774,-25.66797 0.13123,-0.57523 0.33464,-1.47229 0.50057,-2.17129 3.09785,-12.81962 7.88014,-25.32043 14.90611,-36.51744 2.92112,-4.61565 6.23587,-8.99283 9.99957,-12.9558 0.60002,-0.61835 1.39087,-1.43667 2.09983,-2.09885 6.21399,-5.94479 13.81875,-10.78234 22.36148,-12.4175 2.1047,-0.40166 4.24841,-0.58327 6.39025,-0.58521 z" />
  <g
     id="g2"
     transform="translate(-34.705094,-34.685881)">
    <path
       d="m 431.15789,162.2501 v -27.51326 c 0,-41.55284 -39.28926,-80.842103 -80.8421,-80.842103 -28.83369,0 -57.12842,4.661895 -58.31411,4.850526 l -22.528,3.745684 V 146.3781 C 144.78821,223.82484 89.222737,346.83958 66.991158,431.15789 H 333.04253 c 240.74778,0 415.85178,107.78948 415.85179,269.47369 -14.848,-25.11495 -43.92422,-53.89474 -88.68379,-53.89474 -67.98822,0 -121.26316,71.03327 -121.26316,161.68421 0,66.80253 30.47747,119.88884 60.71242,156.16 12.63831,15.17137 36.05558,37.72635 59.01474,58.88005 5.0661,0.1077 9.78189,0.5389 15.00968,0.5389 C 892.98189,1024 1024,832.18863 1024,646.73684 1024,327.54526 679.85516,172.81347 431.15789,162.2501 Z"
       fill="#f7c768"
       id="path1"
       style="display:inline" />
    <path
       d="m 673.68421,1024 c -114.76884,0 -188.82021,-33.33389 -254.16758,-62.78737 -53.62526,-24.14484 -99.97474,-45.0021 -161.28,-45.0021 -40.448,0 -83.59074,23.25557 -103.63958,45.16379 l -39.74737,-36.43285 c 27.648,-30.1541 84.31832,-62.62568 143.38695,-62.62568 68.39242,0 119.8619,21.28842 172.92126,45.056 V 673.68421 c 0,-35.16632 -17.54273,-64.10779 -30.63915,-80.81516 -15.19832,9.83579 -32.06737,18.89011 -50.7419,26.94737 l -21.34231,-49.47537 c 141.36589,-60.928 156.6181,-193.024 156.6181,-246.97263 V 221.6421 a 597.82737,597.82737 0 0 0 -80.8421,-6.06315 h -26.94737 v -80.84211 c 0,-12.09937 -14.848,-26.94737 -26.94737,-26.94737 -9.37768,0 -18.83621,0.59285 -26.94737,1.34737 v 160.33684 h -53.89474 v -57.8021 c -136.03031,102.912 -158.45052,266.88674 -161.30694,295.8821 9.13516,9.10822 38.99284,25.06106 71.97642,38.66948 l 38.10358,-59.36505 12.44968,-1.5899 C 321.21263,473.65389 377.26316,392.192 377.26316,323.36842 h 53.89473 c 0,88.33348 -68.79663,192.24253 -180.87073,213.34232 L 201.88968,612.10947 181.59832,604.672 C 53.894737,557.75663 53.894737,523.3179 53.894737,512 c 0,-50.04126 37.025684,-254.73347 215.578943,-365.6219 V 62.490947 l 22.528,-3.745684 c 1.18569,-0.188631 29.48042,-4.850526 58.31411,-4.850526 41.55284,0 80.8421,39.289263 80.8421,80.842103 V 162.2501 C 679.85516,172.81347 1024,327.54526 1024,646.73684 1024,832.18863 892.98189,1024 673.68421,1024 Z M 660.21053,700.63158 c -36.51369,0 -67.36843,49.36758 -67.36843,107.78947 0,85.74653 68.096,145.08464 89.46527,161.54948 91.54021,-2.53306 164.37895,-45.48716 213.82737,-107.65474 H 700.63158 V 808.42105 H 930.8699 c 8.91957,-17.27326 16.35705,-35.35494 22.28547,-53.89473 H 713.2699 l -6.46737,-17.65053 c -0.512,-1.29347 -14.36295,-36.24421 -46.592,-36.24421 z m -175.1579,230.48084 c 33.92674,14.06653 70.52126,26.59705 114.60716,33.46863 -30.23495,-36.27116 -60.71242,-89.35747 -60.71242,-156.16 0,-90.65094 53.27494,-161.68421 121.26316,-161.68421 44.75957,0 73.83578,28.77979 88.68379,53.89474 h 217.00715 c 2.77558,-17.86611 4.20379,-35.92084 4.20379,-53.89474 0,-38.93894 -5.65894,-74.752 -15.92589,-107.62779 L 827.47284,665.78863 789.36926,627.68505 932.00168,485.05263 A 367.93937,367.93937 0 0 0 874.22653,403.456 L 719.68337,557.99916 681.57979,519.89558 835.15284,366.32253 A 537.86947,537.86947 0 0 0 752.55916,309.57137 L 611.8939,450.20968 573.79032,412.10611 701.92505,283.97137 A 794.73179,794.73179 0 0 0 538.94737,231.04674 v 92.32168 c 0,50.14905 -11.10232,156.69895 -95.93263,236.32842 18.3781,23.41727 42.03789,63.40716 42.03789,113.98737 z M 215.57895,431.15789 v -53.89473 c 39.77431,0 53.89473,-29.02232 53.89473,-53.89474 h 53.89474 c 0,53.57137 -37.02568,107.78947 -107.78947,107.78947 z"
       fill="#231f20"
       id="path2"
       style="display:inline;stroke:none;stroke-width:32;stroke-dasharray:none;stroke-opacity:1;paint-order:stroke fill markers" />
  </g>
</svg>
