<svg xmlns="http://www.w3.org/2000/svg" width="757.895" height="757.895" class="icon" viewBox="0 0 970.105 970.105"><path fill="#f7c768" d="M377.263 108.355V80.842C377.263 39.29 337.973 0 296.421 0c-28.834 0-57.128 4.662-58.314 4.85l-22.528 3.746v83.887C90.893 169.93 35.328 292.945 13.096 377.263h266.052C519.896 377.263 695 485.053 695 646.737c-14.848-25.115-43.925-53.895-88.684-53.895-67.988 0-121.263 71.033-121.263 161.684 0 66.803 30.477 119.89 60.712 156.16 12.638 15.172 36.056 37.727 59.015 58.88 5.066.108 9.782.54 15.01.54 219.297 0 350.315-191.812 350.315-377.264 0-319.191-344.145-473.923-592.842-484.487Z"/><path fill="#231f20" d="M619.79 970.105c-114.77 0-188.82-33.334-254.168-62.787-53.625-24.145-99.975-45.002-161.28-45.002-40.448 0-83.59 23.255-103.64 45.164l-39.747-36.433c27.648-30.154 84.318-62.626 143.387-62.626 68.392 0 119.862 21.288 172.921 45.056V619.79c0-35.166-17.543-64.107-30.639-80.815-15.198 9.836-32.067 18.89-50.742 26.948l-21.342-49.476c141.366-60.928 156.618-193.024 156.618-246.972V167.747a597.827 597.827 0 0 0-80.842-6.063h-26.948V80.842c0-12.1-14.848-26.947-26.947-26.947-9.378 0-18.836.593-26.947 1.347V215.58h-53.895v-57.802C79.549 260.689 57.129 424.664 54.272 453.659c9.135 9.108 38.993 25.061 71.976 38.67l38.104-59.366 12.45-1.59c90.516-11.614 146.566-93.076 146.566-161.9h53.895c0 88.334-68.796 192.243-180.87 213.343l-48.398 75.399-20.291-7.438C0 503.862 0 469.423 0 458.105c0-50.041 37.026-254.733 215.579-365.622V8.596l22.528-3.745C239.293 4.66 267.587 0 296.42 0c41.553 0 80.842 39.29 80.842 80.842v27.513C625.96 118.92 970.105 273.651 970.105 592.842c0 185.452-131.018 377.263-350.316 377.263Zm-13.474-323.368c-36.514 0-67.369 49.367-67.369 107.79 0 85.746 68.096 145.084 89.466 161.549 91.54-2.533 164.379-45.487 213.827-107.655H646.737v-53.895h230.238c8.92-17.273 16.357-35.355 22.286-53.894H659.375l-6.467-17.65c-.512-1.294-14.363-36.245-46.592-36.245zm-175.158 230.48c33.927 14.067 70.521 26.598 114.607 33.47-30.235-36.272-60.712-89.358-60.712-156.16 0-90.652 53.275-161.685 121.263-161.685 44.76 0 73.836 28.78 88.684 53.895h217.007c2.775-17.866 4.204-35.921 4.204-53.895 0-38.939-5.66-74.752-15.926-107.628l-126.707 126.68-38.103-38.104 142.632-142.632a367.94 367.94 0 0 0-57.775-81.597L665.789 504.104l-38.104-38.103 153.573-153.573a537.87 537.87 0 0 0-82.594-56.751L558 396.315l-38.103-38.104L648.03 230.077a794.732 794.732 0 0 0-162.977-52.925v92.322c0 50.149-11.103 156.699-95.933 236.328 18.378 23.417 42.038 63.407 42.038 113.987zM161.684 377.264v-53.895c39.775 0 53.895-29.022 53.895-53.894h53.895c0 53.571-37.026 107.79-107.79 107.79z"/></svg>
